<?xml version="1.0" encoding="utf-8"?>
<!-- Generator: Adobe Illustrator 25.4.1, SVG Export Plug-In . SVG Version: 6.00 Build 0)  -->
<svg version="1.1" id="Layer_2" xmlns="http://www.w3.org/2000/svg" xmlns:xlink="http://www.w3.org/1999/xlink" x="0px" y="0px"
	 viewBox="0 0 180 180" style="enable-background:new 0 0 180 180;" xml:space="preserve">
<g>
	<rect x="56.8" y="36.2" width="7.1" height="7.1"/>
	<rect x="56.8" y="46.9" width="7.1" height="7.1"/>
	<rect x="56.8" y="57.7" width="7.1" height="7.1"/>
	<rect x="56.8" y="68.5" width="7.1" height="7.1"/>
	<rect x="56.8" y="79.3" width="7.1" height="7.1"/>
	<rect x="67.7" y="36.2" width="7.1" height="7.1"/>
	<rect x="67.7" y="46.9" width="7.1" height="7.1"/>
	<rect x="67.7" y="57.7" width="7.1" height="7.1"/>
	<rect x="67.7" y="68.5" width="7.1" height="7.1"/>
	<rect x="67.7" y="79.3" width="7.1" height="7.1"/>
	<rect x="78.6" y="36.2" width="7.1" height="7.1"/>
	<rect x="78.6" y="46.9" width="7.1" height="7.1"/>
	<rect x="78.6" y="79.3" width="7.1" height="7.1"/>
	<rect x="89.5" y="36.2" width="7.1" height="7.1"/>
	<rect x="89.5" y="46.9" width="7.1" height="7.1"/>
	<rect x="100.4" y="36.2" width="7.1" height="7.1"/>
	<rect x="111.3" y="36.2" width="7.1" height="7.1"/>
	<rect x="48.5" y="95.8" width="82.9" height="7.1"/>
	<rect x="48.5" y="20.7" width="82.9" height="7.1"/>
	<rect x="41.4" y="27.8" width="7.1" height="68"/>
	<rect x="131.5" y="27.8" width="7.1" height="68"/>
	<rect x="41.4" y="126.6" width="12.8" height="7.1"/>
	<rect x="104.9" y="121.5" width="33.7" height="7.1"/>
	<rect x="22.3" y="16.3" width="7.1" height="133.6"/>
	<rect x="29.4" y="9.2" width="7.1" height="7.1"/>
	<path d="M36.5,149.9h-7.1v7.1v12.4v7.1h7.1h106.9h7.1v-7.1V157v-7.1h-7.1H36.5z M143.5,169.4H36.5V157h106.9V169.4z"/>
	<rect x="150.6" y="16.3" width="7.1" height="133.6"/>
	<rect x="143.5" y="9.2" width="7.1" height="7.1"/>
	<rect x="36.5" y="2.1" width="106.9" height="7.1"/>
</g>
</svg>
