<?xml version="1.0" encoding="utf-8"?>
<!-- Generator: Adobe Illustrator 25.0.1, SVG Export Plug-In . SVG Version: 6.00 Build 0)  -->
<svg version="1.1" id="Layer_1" xmlns="http://www.w3.org/2000/svg" xmlns:xlink="http://www.w3.org/1999/xlink" x="0px" y="0px"
	 viewBox="0 0 100 38.5" style="enable-background:new 0 0 100 38.5;" xml:space="preserve">
<g id="Layer_1">
	<g id="Layer_1-2">
		<path d="M0,38.5V0h8.2v5.5H11V11h2.8v5.5h2.7V22h2.8v5.5H22V0h5.5v38.5h-8.2V33h-2.8v-5.5h-2.7V22H11v-5.5H8.2V11H5.5v27.5H0z"/>
		<path d="M40.1,38.5v-2.7h-2.7V33h-2.7v-5.5h5.5v2.8h2.7V33h13.8v-2.8h2.7v-5.5h-2.7V22H42.8v-2.8h-5.5v-2.7h-2.7v-11h2.7V2.8h2.7
			V0h19.2v2.8H62v2.7h2.8V11h-5.5V8.2h-2.7V5.5H42.8v2.7h-2.8v5.5h2.7v2.7h13.8v2.7H62V22h2.8v11H62v2.7h-2.7v2.7H40.1z"/>
		<path d="M80.8,38.5V33H78v-8.2h-2.8v-8.2h-2.7V8.2h-2.7V0h5.5v8.2H78v8.2h2.8v8.2h2.7v5.5h2.7v-5.5H89v-8.2h2.7V8.2h2.7V0h5.5v8.2
			h-2.8v8.2h-2.7v8.2h-2.7V33H89v5.5H80.8z"/>
	</g>
</g>
</svg>
